# xmcd
#
# Track frame offsets:
#	151
#	11772
#	27101
#	39624
#	53187
#	64912
#	78463
#	90430
#	101431
#	115666
#	129985
#	147376
#	158269
#	169008
#	180817
#	195806
#
# Disc length: 2789 seconds
#
# Revision: 0
# Processed by: cddbd v1.4PL0 Copyright (c) Steve Scherf et al.
# Submitted via: dBpowerAMP V4.0
#
DISCID=b70ae310
DTITLE=Kenny Rogers - The Legend Collection - Vol. 1
DYEAR=2002
DGENRE=Country
TTITLE0=Me And Bobby McGee
TTITLE1=For The Good Times
TTITLE2=Reuben James
TTITLE3=Stanger In My Place
TTITLE4=Poem For A Little Lady
TTITLE5=Shine On Ruby Mountain
TTITLE6=Elvira
TTITLE7=Goodtime Liberator
TTITLE8=Loser
TTITLE9=It's Raining In My Mind
TTITLE10=Something's Burning
TTITLE11=Homemade Lies
TTITLE12=Ticket To Nowhere
TTITLE13=Girl Get A Hold Of Yourself
TTITLE14=Tell It All Brother
TTITLE15=Sleep Comes Easy
EXTD=
EXTT0=
EXTT1=
EXTT2=
EXTT3=
EXTT4=
EXTT5=
EXTT6=
EXTT7=
EXTT8=
EXTT9=
EXTT10=
EXTT11=
EXTT12=
EXTT13=
EXTT14=
EXTT15=
PLAYORDER=
